<mxfile host="app.diagrams.net" modified="2023-03-24T16:20:47.261Z" agent="Mozilla/5.0 (Macintosh; Intel Mac OS X 10_14_5) AppleWebKit/537.36 (KHTML, like Gecko) Chrome/110.0.0.0 Safari/537.36" version="21.1.1" etag="_yh9XcYRqdiTkO1Gbc7G" type="github">
  <diagram name="第 1 页" id="WCDYUy1ENpnpdnXr8qgh">
    <mxGraphModel>
      <root>
        <mxCell id="0" />
        <mxCell id="1" parent="0" />
      </root>
    </mxGraphModel>
  </diagram>
</mxfile>
